<?xml version="1.0" standalone="no"?>
<!DOCTYPE svg PUBLIC "-//W3C//DTD SVG 20010904//EN"
 "http://www.w3.org/TR/2001/REC-SVG-20010904/DTD/svg10.dtd">
<svg version="1.0" xmlns="http://www.w3.org/2000/svg"
 width="1409.000000pt" height="1403.000000pt" viewBox="0 0 1409.000000 1403.000000"
 preserveAspectRatio="xMidYMid meet">

<g transform="translate(0.000000,1403.000000) scale(0.100000,-0.100000)"
fill="#000000" stroke="none">
<path d="M7242 13110 c-357 -50 -683 -260 -894 -575 -381 -569 -381 -1332 0
-1905 72 -108 263 -301 365 -369 666 -444 1495 -162 1842 628 91 205 134 399
142 641 11 324 -60 622 -213 893 -202 357 -516 597 -880 672 -95 19 -277 27
-362 15z"/>
<path d="M4200 11189 c-477 -358 -863 -750 -1194 -1213 -49 -68 -55 -81 -43
-95 7 -9 63 -74 123 -146 286 -338 381 -452 397 -475 32 -46 22 -92 -42 -208
-171 -306 -274 -559 -418 -1026 -31 -100 -10 -94 -492 -135 -231 -20 -422 -38
-425 -42 -3 -3 -14 -63 -26 -135 -87 -564 -87 -1135 1 -1699 11 -71 23 -132
27 -136 4 -3 189 -21 412 -39 228 -18 419 -38 437 -45 44 -18 55 -40 103 -205
82 -284 209 -592 355 -863 105 -194 107 -210 38 -294 -35 -44 -391 -468 -490
-584 -12 -14 -3 -31 72 -134 324 -443 688 -812 1130 -1145 95 -72 177 -130
182 -130 5 0 151 120 324 266 173 146 324 270 337 275 38 15 64 10 122 -21
343 -188 676 -330 976 -416 71 -20 141 -43 156 -50 52 -27 56 -48 93 -486 19
-226 37 -413 40 -416 6 -7 127 -27 275 -46 353 -47 771 -58 1115 -31 244 19
562 60 578 75 5 4 24 191 43 416 19 225 39 422 46 437 16 41 38 52 192 97 300
88 597 210 877 361 168 89 188 97 231 80 13 -5 163 -127 333 -271 171 -144
316 -265 322 -267 7 -3 45 19 85 48 489 353 914 777 1251 1248 57 80 65 96 55
110 -7 9 -119 142 -248 296 -129 154 -248 295 -263 313 -41 51 -37 95 20 195
166 294 349 741 424 1036 16 65 53 107 100 115 19 3 212 21 429 39 l395 32 12
60 c27 133 63 473 74 694 8 175 8 294 0 470 -11 222 -47 562 -74 696 l-12 60
-420 35 c-448 38 -458 40 -483 95 -6 13 -25 73 -43 132 -93 320 -244 681 -405
965 -51 90 -57 139 -22 184 13 16 131 157 263 314 132 157 246 293 253 302 11
14 4 29 -54 110 -278 384 -621 748 -979 1038 -128 104 -338 260 -350 260 -7 0
-45 -28 -86 -63 -566 -480 -575 -487 -618 -487 -13 0 -81 31 -150 69 -224 122
-647 308 -675 298 -7 -3 -17 -28 -24 -56 -31 -135 -133 -362 -228 -509 -30
-45 -54 -86 -54 -90 0 -4 64 -31 143 -61 769 -290 1437 -845 1873 -1556 527
-862 689 -1896 449 -2874 -365 -1484 -1610 -2614 -3120 -2830 -494 -71 -985
-46 -1465 74 -1000 251 -1861 909 -2373 1816 -257 454 -412 952 -463 1489 -20
206 -15 631 11 820 94 713 365 1346 819 1914 113 142 428 454 577 572 306 243
671 452 1009 577 52 20 107 40 122 46 l26 10 -54 83 c-78 119 -156 282 -208
436 -24 74 -47 136 -50 139 -12 13 -315 -117 -555 -239 -140 -70 -264 -128
-275 -128 -34 0 -68 26 -385 293 -167 142 -308 257 -315 257 -6 0 -72 -46
-146 -101z"/>
<path d="M6765 9244 c-286 -18 -632 -40 -770 -49 -283 -18 -373 -31 -506 -76
-475 -159 -824 -573 -904 -1069 -13 -82 -15 -315 -15 -1719 l0 -1623 93 -112
c112 -133 269 -294 389 -398 101 -87 288 -232 293 -227 2 2 19 195 39 429 20
234 70 819 111 1300 41 481 84 997 96 1145 14 170 27 282 36 302 41 90 171 89
209 -2 12 -31 8 -107 -46 -737 -33 -387 -94 -1103 -135 -1593 -41 -489 -77
-913 -80 -941 l-6 -52 111 -61 c427 -235 909 -380 1397 -422 182 -15 605 -6
763 16 363 50 725 156 1040 303 86 40 289 148 302 161 5 4 -37 535 -92 1181
-190 2240 -180 2110 -166 2145 38 89 174 91 211 2 7 -19 36 -315 69 -712 88
-1053 206 -2438 209 -2454 1 -9 32 9 87 49 200 148 425 361 598 567 l92 108
-3 1670 c-3 1546 -4 1675 -20 1740 -60 242 -139 404 -281 581 -191 237 -482
411 -787 469 -45 8 -188 22 -318 30 -856 54 -1384 85 -1436 84 -33 -1 -294
-16 -580 -35z"/>
</g>
</svg>
