<?xml version="1.0" standalone="no"?>
<!DOCTYPE svg PUBLIC "-//W3C//DTD SVG 20010904//EN"
 "http://www.w3.org/TR/2001/REC-SVG-20010904/DTD/svg10.dtd">
<svg version="1.0" xmlns="http://www.w3.org/2000/svg"
 width="360.000000pt" height="360.000000pt" viewBox="0 0 360.000000 360.000000"
 preserveAspectRatio="xMidYMid meet">

<g transform="translate(0.000000,360.000000) scale(0.100000,-0.100000)"
fill="#000000" stroke="none">
<path d="M1680 3289 c-62 -12 -93 -25 -183 -77 -88 -51 -139 -103 -169 -170
-26 -61 -48 -178 -48 -253 0 -46 -5 -67 -22 -90 -46 -61 -21 -234 42 -296 15
-15 40 -54 54 -86 63 -144 196 -295 303 -345 50 -23 71 -27 148 -27 80 0 97 4
150 30 108 54 235 203 302 353 13 31 35 67 48 80 54 54 80 227 42 285 -11 16
-21 62 -27 121 -26 254 -68 320 -272 431 -92 49 -247 68 -368 44z"/>
<path d="M1385 1880 c-80 -54 -184 -92 -335 -125 -144 -31 -173 -42 -218 -80
-69 -58 -105 -176 -118 -386 -8 -141 0 -172 62 -229 71 -65 225 -126 412 -161
34 -6 62 -16 62 -22 0 -5 41 -52 91 -103 l91 -92 -16 -95 c-29 -173 -16 -236
58 -271 58 -27 93 -21 214 41 l112 58 113 -58 c120 -62 155 -68 213 -41 74 35
87 98 58 271 l-16 95 91 92 c50 51 91 98 91 103 0 6 28 16 63 22 186 35 340
96 411 161 62 57 70 88 62 229 -12 198 -48 323 -108 377 -47 43 -77 55 -224
88 -172 39 -251 69 -341 127 -35 23 -65 40 -66 38 -2 -2 -52 -110 -112 -241
-61 -130 -113 -233 -116 -230 -4 4 -17 42 -29 84 l-23 77 33 81 c31 78 32 81
15 100 -16 17 -31 20 -115 20 -84 0 -99 -3 -115 -20 -17 -19 -16 -22 15 -100
l33 -81 -23 -77 c-12 -42 -25 -81 -27 -85 -3 -5 -54 97 -115 225 -60 128 -112
236 -116 240 -4 4 -34 -10 -67 -32z m505 -734 l65 -130 138 -21 c148 -22 178
-36 158 -73 -6 -11 -54 -60 -106 -109 l-96 -89 25 -139 c25 -143 23 -175 -11
-175 -9 0 -72 29 -139 65 l-123 64 -124 -64 c-68 -36 -131 -65 -140 -65 -34 0
-36 32 -11 175 l25 139 -96 89 c-52 49 -100 98 -106 109 -20 37 10 51 158 73
l138 21 53 109 c70 145 79 157 105 153 17 -2 37 -32 87 -132z"/>
</g>
</svg>
